# xmcd
#
# Track frame offsets: 
#        150
#        12110
#        26490
#        40278
#        53150
#        67285
#        82210
#        96909
#        110117
#        121466
#        133810
#        145584
#        159491
#        173228
#        187884
#        202032
#        216350
#        232617
#        246797
#        261681
#        275724
#        291024
#        304619
#        318344
#
# Disc length: 4426 seconds
#
# Revision: 0
# Processed by: cddbd v1.5.2PL0 Copyright (c) Steve Scherf et al.
# Submitted via: ExactAudioCopy v1.0b3
#
DISCID=6d114818
DTITLE=Louis Armstrong - Hot Five and Hot Seven
DYEAR=1948
DGENRE=Blues
TTITLE0=Muskrat Ramble
TTITLE1=Oriental Strut
TTITLE2=Heebie Jeebies
TTITLE3=Gut Bucket Blues
TTITLE4=Cornet Shop Suey
TTITLE5=The Kink Of The Zulus
TTITLE6=Don't Forget The Mess Around
TTITLE7=I'm Gonna Gitcha
TTITLE8=My Heart
TTITLE9=Yes! I'm In The Barrel
TTITLE10=Come Back Sweet Papa
TTITLE11=Dropin' Shucks
TTITLE12=Struttin' With Some Barbecue
TTITLE13=Willie The Weeper
TTITLE14=Alligator Crawl
TTITLE15=Twelfth Street Rag
TTITLE16=Keyhole Blues
TTITLE17=Melancholie Blues
TTITLE18=Wild Man Blues
TTITLE19=Weary Blues
TTITLE20=Gully Low Blues
TTITLE21=S.O.L. Blues
TTITLE22=Potato Head Blues
TTITLE23=That's When I'll Come Back To You
EXTD=
EXTT0=
EXTT1=
EXTT2=
EXTT3=
EXTT4=
EXTT5=
EXTT6=
EXTT7=
EXTT8=
EXTT9=
EXTT10=
EXTT11=
EXTT12=
EXTT13=
EXTT14=
EXTT15=
EXTT16=
EXTT17=
EXTT18=
EXTT19=
EXTT20=
EXTT21=
EXTT22=
EXTT23=
PLAYORDER=
